<?xml version="1.0" standalone="no"?>
<svg viewBox="0 0 200 200" xmlns="http://www.w3.org/2000/svg">
  <path fill="#FF0066" d="M21.2,-37C28.6,-32.4,36.6,-29.1,42.6,-23.1C48.6,-17.2,52.6,-8.6,55.9,1.9C59.1,12.4,61.7,24.7,57.7,34.2C53.8,43.7,43.3,50.3,32.6,58.1C21.9,66,10.9,75.2,0.4,74.4C-10.1,73.6,-20.1,63,-34.3,57.1C-48.6,51.3,-66.9,50.2,-70.6,41.5C-74.3,32.8,-63.3,16.4,-60.5,1.6C-57.6,-13.1,-62.9,-26.2,-58.3,-33.4C-53.7,-40.5,-39.2,-41.6,-27.8,-44C-16.5,-46.3,-8.2,-49.8,-0.7,-48.6C6.9,-47.5,13.7,-41.6,21.2,-37Z" transform="translate(100 100)" />
</svg>
