<?xml version="1.0" standalone="no"?><svg xmlns="http://www.w3.org/2000/svg" viewBox="0 0 1440 320"><path fill="#0099ff" fill-opacity="1" d="M0,64L24,85.3C48,107,96,149,144,176C192,203,240,213,288,197.3C336,181,384,139,432,106.7C480,75,528,53,576,53.3C624,53,672,75,720,96C768,117,816,139,864,138.7C912,139,960,117,1008,106.7C1056,96,1104,96,1152,80C1200,64,1248,32,1296,16C1344,0,1392,0,1416,0L1440,0L1440,320L1416,320C1392,320,1344,320,1296,320C1248,320,1200,320,1152,320C1104,320,1056,320,1008,320C960,320,912,320,864,320C816,320,768,320,720,320C672,320,624,320,576,320C528,320,480,320,432,320C384,320,336,320,288,320C240,320,192,320,144,320C96,320,48,320,24,320L0,320Z" data-darkreader-inline-fill="" style="--darkreader-inline-fill: #007acc;"></path></svg>